<svg
  xmlns="http://www.w3.org/2000/svg"
  xml:space="preserve"
  height="300"
  width="720"
  version="1.1"
  y="0"
  x="0"
  viewBox="0 0 720 300">
  <style type="text/css">
    .st0 {
      fill: url("#SVGID_1_");
    }
    .st1 {
      fill: url("#SVGID_2_");
    }
    .st2 {
      fill: url("#SVGID_3_");
    }
    .st3 {
      fill: url("#SVGID_4_");
    }
    .st4 {
      fill: url("#SVGID_5_");
    }
    .st5 {
      fill: #AF2024;
    }
    .st6 {
      fill: url("#SVGID_6_");
    }
    .st7 {
      fill: #941B1E;
    }
    .st8 {
      fill: #B12739;
    }
    .st9 {
      fill: #952432;
    }
    .st10 {
      fill: #D42027;
    }
    .st11 {
      fill: url("#SVGID_7_");
    }
    .st12 {
      fill: url("#SVGID_8_");
    }
    .st13 {
      fill: #1C9A48;
    }
    .st14 {
      fill: url("#SVGID_9_");
    }
    .st15 {
      fill: url("#SVGID_10_");
    }
    .st16 {
      fill: #2A3886;
    }
    .st17 {
      fill: url("#SVGID_11_");
    }
    .st18 {
      fill: url("#SVGID_12_");
    }
    .st19 {
      fill: url("#SVGID_13_");
    }
    .st20 {
      fill: url("#SVGID_14_");
    }
  </style>
  <g transform="translate(-1.55,-3.3)">
    <linearGradient id="SVGID_1_" y2="-32.663" gradientUnits="userSpaceOnUse" y1="-32.663" gradientTransform="matrix(1 0 0 -1 -118.98 120.54)" x2="842.08" x1="118.98"><stop stop-color="#952331" offset="0"/><stop stop-color="#921C1D" offset=".036094"/><stop stop-color="#B02739" offset=".084649"/><stop stop-color="#AD1F24" offset=".1237"/><stop stop-color="#C72026" offset=".1509"/><stop stop-color="#D42027" offset=".1697"/><stop stop-color="#CC2431" offset=".1758"/><stop stop-color="#B72B4C" offset=".1888"/><stop stop-color="#953371" offset=".2074"/><stop stop-color="#88357F" offset=".2142"/><stop stop-color="#853681" offset=".2436"/><stop stop-color="#6F368B" offset=".2638"/><stop stop-color="#39428F" offset=".2911"/><stop stop-color="#233D7D" offset=".3242"/><stop stop-color="#322C6F" offset=".4181"/><stop stop-color="#2A3885" offset=".494"/><stop stop-color="#1D62A1" offset=".5581"/><stop stop-color="#276CA5" offset=".5702"/><stop stop-color="#438EB3" offset=".6103"/><stop stop-color="#55A5BC" offset=".6399"/><stop stop-color="#5CAFBF" offset=".6556"/><stop stop-color="#56ABBD" offset=".6777"/><stop stop-color="#439FB8" offset=".7058"/><stop stop-color="#188EAF" offset=".7372"/><stop stop-color="#038BAE" offset=".7426"/><stop stop-color="#069292" offset=".7898"/><stop stop-color="#05A14B" offset=".8875"/><stop stop-color="#03927E" offset="1"/></linearGradient><rect width="723.1" y="0" x="0" height="306.4" class="st0" fill="url(#SVGID_1_)"/>
    <linearGradient id="SVGID_2_" y2="-109.26" gradientUnits="userSpaceOnUse" y1="-109.26" gradientTransform="matrix(1 0 0 -1 -118.98 120.54)" x2="235.98" x1="325.08"><stop stop-color="#893680" offset="0"/><stop stop-color="#893680" offset=".3354"/><stop stop-color="#8D316D" offset=".5025"/><stop stop-color="#90294D" offset=".8398"/><stop stop-color="#902541" offset="1"/></linearGradient><polygon points="175.1 153.2 117 306.4 206.1 306.4" fill="url(#SVGID_2_)" class="st1"/>
    <linearGradient id="SVGID_3_" y2="-82.284" gradientUnits="userSpaceOnUse" y1="120.24" gradientTransform="matrix(1 0 0 -1 -118.98 120.54)" x2="446.55" x1="478.93"><stop stop-color="#322C6F" offset="0"/><stop stop-color="#322C6F" offset=".2427"/><stop stop-color="#302F72" offset=".4599"/><stop stop-color="#2A3A7E" offset=".7155"/><stop stop-color="#154A93" offset=".9896"/><stop stop-color="#134B94" offset="1"/></linearGradient><polygon points="288.4 153.2 310.7 306.4 358.1 306.4 358.1 0 312.9 0" fill="url(#SVGID_3_)" class="st2"/>
    <linearGradient id="SVGID_4_" y2="-32.663" gradientUnits="userSpaceOnUse" y1="-32.663" gradientTransform="matrix(1 0 0 -1 -118.98 120.54)" x2="372.88" x1="294.08"><stop stop-color="#6F378D" offset="0"/><stop stop-color="#3A4291" offset="1"/></linearGradient><polygon points="175.1 153.2 206.1 306.4 253.9 153.2 209.4 0 209.4 0" fill="url(#SVGID_4_)" class="st3"/>
    <linearGradient id="SVGID_5_" y2="-32.663" gradientUnits="userSpaceOnUse" y1="-32.663" gradientTransform="matrix(1 0 0 -1 -118.98 120.54)" x2="325.08" x1="431.88"><stop stop-color="#233D7D" offset="0"/><stop stop-color="#293D7D" offset=".2495"/><stop stop-color="#3A3C80" offset=".5446"/><stop stop-color="#513B84" offset=".8616"/><stop stop-color="#5D3A86" offset="1"/></linearGradient><polygon points="253.9 153.2 206.1 306.4 310.7 306.4 288.4 153.2 312.9 0 209.4 0" fill="url(#SVGID_5_)" class="st4"/><polygon points="116.1 0 55.7 0 55.7 94.8 89.9 153.2 55.7 211.6 55.7 306.4 117 306.4 95.2 153.2" fill="#af2024" class="st5"/>
    <linearGradient id="SVGID_6_" y2="43.937" gradientUnits="userSpaceOnUse" y1="43.937" gradientTransform="matrix(1 0 0 -1 -118.98 120.54)" x2="232.67" x1="329.11"><stop stop-color="#893680" offset="0"/><stop stop-color="#893680" offset=".3354"/><stop stop-color="#8D316D" offset=".5025"/><stop stop-color="#90294D" offset=".8398"/><stop stop-color="#902541" offset="1"/></linearGradient><polygon points="175.1 153.2 209.4 0 116.1 0" fill="url(#SVGID_6_)" class="st6"/><polygon points="55.7 94.8 55.7 0 0 0" fill="#941b1e" class="st7"/><polygon points="55.7 211.6 89.9 153.2 55.7 94.8" fill="#b12739" class="st8"/><polygon points="55.7 211.6 0 306.4 55.7 306.4" fill="#941b1e" class="st7"/><polygon points="55.7 94.8 0 0 0 306.4 55.7 211.6" fill="#952432" class="st9"/><polygon points="116.1 0 95.2 153.2 117 306.4 175.1 153.2" fill="#d42027" class="st10"/>
    <linearGradient id="SVGID_7_" y2="-186.06" gradientUnits="userSpaceOnUse" y1="120.44" gradientTransform="matrix(1 0 0 -1 -118.98 120.54)" x2="748.96" x1="748.96"><stop stop-color="#94BE55" offset="0"/><stop stop-color="#93BD58" offset=".044340"/><stop stop-color="#8BBC6A" offset=".3891"/><stop stop-color="#86BC75" offset=".7149"/><stop stop-color="#84BC79" offset="1"/></linearGradient><path
      d="m641.6 259.6c1.7-25.4 10-54.6 18.8-85.6 1.4-5 2.8-10 4.2-15.1-1.4-5.5-2.8-10.9-4.2-16.2-8.8-33.3-17-64.7-18.8-92-1.4-21.2 1.4-37 8.9-50.6h-45.9c-7.5 18.3-10.3 29.1-8.9 50.3 1.7 27.3 10 58.7 18.8 92 13 49.3 28 106.2 23.2 164.2h12.9c-7.6-12.8-10.4-27.3-9-47z"
      class="st11"
      fill="url(#SVGID_7_)"/>
    <linearGradient id="SVGID_8_" y2="-184.45" gradientUnits="userSpaceOnUse" y1="117.29" gradientTransform="matrix(1 0 0 -1 -118.98 120.54)" x2="733.49" x1="653.76"><stop stop-color="#08A24B" offset="0"/><stop stop-color="#0AA14E" offset=".1678"/><stop stop-color="#0B9E57" offset=".4047"/><stop stop-color="#099A67" offset=".6827"/><stop stop-color="#04947D" offset=".9898"/><stop stop-color="#04937E" offset="1"/></linearGradient><path d="m614.5 142.3c-8.8-33.3-17-64.7-18.8-92-1.4-21.2 1.4-32 8.9-50.3h-35.4c5.7 53.9-3.8 106.7-13.6 166.8-5.7 35-11.7 71.3-13.2 100.6-1.1 21.1 0.4 32.8 1.8 39h93.5c4.8-57.9-10.3-114.8-23.2-164.1z" class="st12" fill="url(#SVGID_8_)"/><path class="st13" fill="#1c9a48" d="m664.6 158.9c-1.4 5.1-2.8 10.1-4.2 15.1-8.8 31-17 60.2-18.8 85.6-1.4 19.7 1.4 34.2 9 46.9h33c4.2-51.8-7.2-102.3-19-147.6z"/>
    <linearGradient id="SVGID_9_" y2="-185.96" gradientUnits="userSpaceOnUse" y1="120.54" gradientTransform="matrix(1 0 0 -1 -118.98 120.54)" x2="812.83" x1="812.83"><stop stop-color="#69A060" offset="0"/><stop stop-color="#639D5C" offset=".039895"/><stop stop-color="#4C944F" offset=".2192"/><stop stop-color="#378E47" offset=".4184"/><stop stop-color="#298B44" offset=".6515"/><stop stop-color="#238A43" offset="1"/></linearGradient><path d="m680.5 0c10.7 55.3-2.5 110.4-15.9 158.9 11.7 45.3 23.2 95.8 18.9 147.6h39.6v-306.5h-42.6z" class="st14" fill="url(#SVGID_9_)"/>
    <linearGradient id="SVGID_10_" y2="-185.86" gradientUnits="userSpaceOnUse" y1="120.54" gradientTransform="matrix(1 0 0 -1 -118.98 120.54)" x2="652.45" x1="652.45"><stop stop-color="#05B5DC" offset="0"/><stop stop-color="#04B0D7" offset=".2197"/><stop stop-color="#05A4C9" offset=".5371"/><stop stop-color="#0591B4" offset=".9122"/><stop stop-color="#058CAE" offset="1"/></linearGradient><path d="m542.3 267.4c1.5-29.4 7.5-65.6 13.2-100.6 9.8-60.1 19.3-112.8 13.6-166.8h-70.8c-1.4 11.4-2.9 19.2-1.8 41.8 1.5 31.6 7.5 70.5 13.2 108.2 8.4 55.4 16.6 108.8 15.1 156.4h19.2c-1.3-6.2-2.8-17.9-1.7-39z" class="st15" fill="url(#SVGID_10_)"/><polygon points="375.7 153.2 358.1 0 358.1 306.4" fill="#2a3886" class="st16"/>
    <linearGradient id="SVGID_11_" y2="77.136" gradientUnits="userSpaceOnUse" y1="-4.3281" gradientTransform="matrix(1 0 0 -1 -118.98 120.54)" x2="796.71" x1="751.05"><stop stop-color="#62B16E" offset="0"/><stop stop-color="#87B957" offset="1"/></linearGradient><path d="m641.6 50.6c1.7 27.3 10 58.7 18.8 92 1.4 5.3 2.8 10.7 4.2 16.2 13.5-48.4 26.6-103.5 15.9-158.8h-30c-7.5 13.6-10.3 29.4-8.9 50.6z" class="st17" fill="url(#SVGID_11_)"/>
    <linearGradient id="SVGID_12_" y2="-189.28" gradientUnits="userSpaceOnUse" y1="113.71" gradientTransform="matrix(1 0 0 -1 -118.98 120.54)" x2="631.59" x1="550.4"><stop stop-color="#069AD4" offset="0"/><stop stop-color="#30A0CE" offset=".3525"/><stop stop-color="#5BB0C0" offset="1"/></linearGradient><path d="m509.8 150c-5.7-37.7-11.7-76.6-13.2-108.2-1.1-22.7 0.4-30.4 1.8-41.8h-41.5c1.5 40.1-1.5 85.3-7 160.8-3.1 43.5-8 110.5-7 145.7h82.1c1.4-47.7-6.8-101.1-15.2-156.5z" class="st18" fill="url(#SVGID_12_)"/>
    <linearGradient id="SVGID_13_" y2="-185.86" gradientUnits="userSpaceOnUse" y1="120.54" gradientTransform="matrix(1 0 0 -1 -118.98 120.54)" x2="505.33" x1="505.33"><stop stop-color="#1E458E" offset="0"/><stop stop-color="#1F4F96" offset=".2411"/><stop stop-color="#2B6AAB" offset=".7292"/><stop stop-color="#337BB9" offset="1"/></linearGradient><polygon points="358.1 306.4 414.6 306.4 414.6 0 358.1 0 375.7 153.2" fill="url(#SVGID_13_)" class="st19"/>
    <linearGradient id="SVGID_14_" y2="120.54" gradientUnits="userSpaceOnUse" y1="-185.86" gradientTransform="matrix(1 0 0 -1 -118.98 120.54)" x2="554.92" x1="554.92"><stop stop-color="#3F9AC9" offset="0"/><stop stop-color="#2062A2" offset="1"/></linearGradient><path d="m449.9 160.8c5.5-75.5 8.5-120.6 7-160.8h-42.2l-0.1 306.4h28.3c-1-35.1 3.8-102.1 7-145.6z" class="st20" fill="url(#SVGID_14_)"/></g>
</svg>
